<?xml version="1.0" encoding="UTF-8" standalone="no"?>
<!DOCTYPE svg PUBLIC "-//W3C//DTD SVG 1.1//EN" "http://www.w3.org/Graphics/SVG/1.1/DTD/svg11.dtd">
<svg width="100%" height="100%" viewBox="0 0 239 203" version="1.1" xmlns="http://www.w3.org/2000/svg" xmlns:xlink="http://www.w3.org/1999/xlink" xml:space="preserve" xmlns:serif="http://www.serif.com/" style="fill-rule:evenodd;clip-rule:evenodd;stroke-linejoin:round;stroke-miterlimit:2;">
    <g transform="matrix(1,0,0,1,-207.506,-115.904)">
        <g transform="matrix(1,0,0,1,5.28382,13.1558)">
            <g transform="matrix(1,0,0,1,202.222,213.352)">
                <clipPath id="_clip1">
                    <path d="M28.769,41.616C28.769,44.892 28.245,47.797 27.197,50.332C26.069,52.805 24.578,54.814 22.725,56.359C24.86,57.966 26.563,60.146 27.832,62.896C29.101,65.647 29.736,68.877 29.736,72.586C29.736,78.583 28.406,83.327 25.747,86.82C23.087,90.313 19.461,92.059 14.868,92.059C10.274,92.059 6.648,90.328 3.989,86.866C1.33,83.281 0,78.521 0,72.586C0,68.877 0.625,65.632 1.874,62.85C3.123,60.068 4.795,57.905 6.89,56.359C5.037,54.876 3.576,52.851 2.508,50.286C1.44,47.72 0.907,44.83 0.907,41.616C0.907,35.866 2.156,31.292 4.654,27.892C7.192,24.43 10.597,22.699 14.868,22.699C19.139,22.699 22.523,24.399 25.021,27.799C27.52,31.199 28.769,35.805 28.769,41.616ZM19.28,78.706C20.368,76.975 20.912,74.626 20.912,71.659C20.912,68.692 20.368,66.343 19.28,64.612C18.192,62.881 16.701,62.016 14.807,62.016C12.954,62.016 11.473,62.881 10.365,64.612C9.257,66.343 8.703,68.692 8.703,71.659C8.703,74.503 9.247,76.821 10.335,78.614C11.423,80.406 12.934,81.303 14.868,81.303C16.762,81.303 18.232,80.437 19.28,78.706ZM20.065,42.172C20.065,39.576 19.602,37.474 18.675,35.867C17.749,34.259 16.479,33.456 14.868,33.456C13.256,33.456 11.987,34.228 11.06,35.774C10.133,37.319 9.67,39.452 9.67,42.172C9.67,44.892 10.123,47.071 11.03,48.709C11.937,50.347 13.216,51.166 14.868,51.166C16.52,51.166 17.799,50.347 18.706,48.709C19.612,47.071 20.065,44.892 20.065,42.172ZM65.455,31.137L48.471,91.132L39.224,91.132L56.268,34.476L34.389,34.476L34.389,23.627L65.455,23.627L65.455,31.137ZM100.69,63.221C100.69,72.556 99.421,79.695 96.882,84.641C94.344,89.586 90.657,92.059 85.822,92.059C81.027,92.059 77.361,89.648 74.822,84.826C72.324,79.881 71.035,72.896 70.954,63.87L70.954,51.445C70.954,42.048 72.224,34.908 74.762,30.025C77.3,25.141 80.967,22.699 85.762,22.699C90.557,22.699 94.223,25.11 96.762,29.932C99.3,34.754 100.609,41.708 100.69,50.796L100.69,63.221ZM91.926,49.59C91.926,44.026 91.433,39.962 90.446,37.397C89.459,34.831 87.897,33.548 85.762,33.548C83.707,33.548 82.196,34.769 81.229,37.211C80.262,39.653 79.738,43.439 79.658,48.57L79.658,64.983C79.658,70.485 80.141,74.58 81.108,77.269C82.075,79.958 83.646,81.303 85.822,81.303C87.958,81.303 89.499,80.005 90.446,77.408C91.393,74.812 91.886,70.886 91.926,65.632L91.926,49.59ZM116.525,80.005L135.805,80.005L135.805,91.132L107.459,91.132L107.459,23.627L116.525,23.627L116.525,80.005ZM159.315,91.132C158.872,89.895 158.57,88.412 158.409,86.681C156.313,90.266 153.573,92.059 150.189,92.059C146.966,92.059 144.306,90.637 142.211,87.794C140.116,84.95 139.068,81.365 139.068,77.037C139.068,71.721 140.358,67.641 142.936,64.797C145.515,61.954 149.222,60.532 154.057,60.532L158.046,60.532L158.046,57.565C158.046,55.216 157.663,53.361 156.898,52.001C156.132,50.641 154.903,49.961 153.211,49.961C151.76,49.961 150.612,50.517 149.766,51.63C148.92,52.743 148.497,54.226 148.497,56.081L139.793,56.081C139.793,53.176 140.378,50.471 141.546,47.967C142.715,45.464 144.367,43.516 146.502,42.126C148.638,40.735 151.035,40.039 153.694,40.039C157.723,40.039 160.927,41.6 163.304,44.722C165.681,47.844 166.87,52.186 166.87,57.75L166.87,79.541C166.87,84.301 167.293,87.917 168.139,90.39L168.139,91.132L159.315,91.132ZM152.123,81.859C153.412,81.859 154.601,81.411 155.689,80.515C156.777,79.618 157.562,78.428 158.046,76.945L158.046,68.321L154.782,68.321C150.431,68.321 148.114,70.639 147.832,75.275L147.771,76.11C147.771,77.779 148.164,79.155 148.95,80.236C149.736,81.318 150.793,81.859 152.123,81.859ZM203.012,66.466C203.012,74.503 201.894,80.777 199.658,85.29C197.421,89.803 194.289,92.059 190.259,92.059C186.714,92.059 183.893,89.957 181.798,85.754L181.435,91.132L173.578,91.132L173.578,19.917L182.282,19.917L182.282,45.51C184.296,41.925 186.955,40.101 190.259,40.039C194.248,40.039 197.371,42.28 199.627,46.762C201.884,51.244 203.012,57.565 203.012,65.725L203.012,66.466ZM194.248,65.539C194.248,60.47 193.724,56.761 192.677,54.412C191.629,52.063 190.078,50.888 188.023,50.888C185.243,50.888 183.329,52.65 182.282,56.174L182.282,75.925C183.329,79.51 185.263,81.303 188.084,81.303C190.904,81.303 192.758,79.139 193.644,74.812C194.047,72.834 194.248,69.743 194.248,65.539ZM207.001,65.539C207.001,60.594 207.625,56.174 208.874,52.279C210.123,48.385 211.927,45.371 214.284,43.238C216.641,41.106 219.35,40.039 222.413,40.039C226.845,40.039 230.451,42.11 233.231,46.252C236.011,50.394 237.562,56.019 237.885,63.128L238.005,66.559C238.005,74.225 236.595,80.391 233.775,85.058C230.954,89.725 227.187,92.059 222.473,92.059C217.759,92.059 214.002,89.741 211.201,85.105C208.401,80.468 207.001,74.163 207.001,66.188L207.001,65.539ZM215.764,66.559C215.764,71.319 216.349,74.966 217.517,77.501C218.686,80.035 220.358,81.303 222.533,81.303C224.629,81.303 226.28,80.066 227.489,77.594C228.658,74.997 229.242,70.979 229.242,65.539C229.242,60.841 228.648,57.225 227.459,54.69C226.27,52.156 224.588,50.888 222.413,50.888C220.277,50.888 218.635,52.171 217.487,54.736C216.338,57.302 215.764,61.243 215.764,66.559Z" clip-rule="nonzero"/>
                </clipPath>
                <g clip-path="url(#_clip1)">
                    <rect x="0" y="19.917" width="240" height="72.142" style="fill:rgb(255,147,0);"/>
                </g>
            </g>
            <g transform="matrix(1,0,0,1,270.862,102.748)">
                <clipPath id="_clip2">
                    <path d="M8.826,55.598C4.29,62.406 1.17,69.781 0.316,77.724C-3.085,106.088 21.592,115.166 45.703,116.583C73.784,118.286 106.121,111.478 102.432,76.021C101.866,81.979 100.166,85.665 97.615,87.65C96.476,88.785 95.345,89.354 93.925,89.354C92.506,89.354 91.374,88.785 90.52,88.219C90.52,87.934 90.236,87.934 89.951,87.934L89.951,87.65C89.104,86.8 88.535,85.382 88.535,83.964C88.535,78.574 96.191,72.901 95.345,61.838C94.206,52.762 89.951,46.522 83.71,41.982C87.966,50.492 84.85,68.079 69.529,68.646C63.858,68.928 58.749,65.243 56.483,60.42C54.779,57.583 54.213,54.18 55.348,50.492C59.034,38.579 71.23,40.564 74.919,30.352C76.339,26.096 74.919,19.29 67.829,13.9C70.099,17.588 71.515,23.261 63.004,26.381C48.823,29.216 43.152,11.915 45.987,0C40.882,5.675 38.612,10.78 38.612,15.886C38.612,23.828 44.852,28.366 47.973,35.174C48.823,36.876 49.393,38.862 49.393,41.132C49.393,51.627 36.627,56.733 29.251,49.642C25.847,46.237 24.712,41.415 26.416,36.876C21.876,40.564 19.606,44.535 19.891,49.073C20.46,57.868 29.817,59.853 29.817,68.646C29.817,75.169 24.712,80.276 18.191,80.559L17.906,80.559C4.571,79.992 4.005,64.958 8.826,55.598Z" clip-rule="nonzero"/>
                </clipPath>
                <g clip-path="url(#_clip2)">
                    <rect x="0" y="0" width="102.721" height="116.822" style="fill:url(#_Linear3);"/>
                </g>
            </g>
        </g>
    </g>
    <defs>
        <linearGradient id="_Linear3" x1="0" y1="0" x2="1" y2="0" gradientUnits="userSpaceOnUse" gradientTransform="matrix(-0.0001,-116.822,-116.822,0.0001,102.721,116.822)"><stop offset="0" style="stop-color:rgb(175,49,4);stop-opacity:1"/><stop offset="1" style="stop-color:rgb(241,132,30);stop-opacity:1"/></linearGradient>
    </defs>
</svg>
